<svg width="15" height="14" viewBox="0 0 15 14" fill="none" xmlns="http://www.w3.org/2000/svg">
<path d="M0.600958 0C0.26212 0 0.108684 0.266458 0.0575385 0.579937C0.0127863 0.822884 0 1.2069 0 1.66928C0 5.46238 1.24027 7.09248 4.27064 7.09248H8.73946L10.3058 6.98276L8.15131 9.3887L6.73201 11.1598C6.62975 11.2931 6.57856 11.4734 6.57856 11.6614C6.57856 12.0533 6.8215 12.3354 7.14117 12.3354C7.28821 12.3354 7.4289 12.2649 7.56952 12.1003L11.8018 6.92007C11.936 6.76332 12 6.58307 12 6.38715C12 6.19906 11.936 6.01097 11.8018 5.86207L7.55675 0.658307C7.4289 0.509405 7.28821 0.446709 7.14117 0.446709C6.8215 0.446709 6.57856 0.72884 6.57856 1.12069C6.57856 1.30878 6.6361 1.48903 6.73201 1.61442L8.15131 3.38558L10.3122 5.80721L8.73946 5.68965H4.32818C1.98188 5.68965 1.15717 4.50627 1.15717 1.59875C1.15717 1.22257 1.17635 0.971789 1.17635 0.689655C1.17635 0.282131 0.933402 0 0.600958 0Z" fill="black"/>
</svg>
