<svg width="34" height="26" viewBox="0 0 34 26" fill="none" xmlns="http://www.w3.org/2000/svg">
<path d="M8.90476 15.4375H18.7C18.36 16.2013 18.101 17.0138 17.9552 17.875H8.90476C3.98286 17.875 0 13.8775 0 8.9375C0 3.9975 3.98286 0 8.90476 0H25.9048C29.4829 0 32.381 2.90875 32.381 6.5C32.381 7.97875 31.879 9.3275 31.0371 10.4163C30.1629 10.075 29.2238 9.86375 28.2524 9.79875C28.9521 9.30059 29.4756 8.59178 29.7471 7.77501C30.0186 6.95824 30.024 6.07592 29.7625 5.25588C29.501 4.43583 28.9861 3.72065 28.2925 3.21393C27.5989 2.70721 26.7626 2.43527 25.9048 2.4375H8.90476C5.32667 2.4375 2.42857 5.34625 2.42857 8.9375C2.42857 12.5288 5.32667 15.4375 8.90476 15.4375ZM12.1429 10.5625C11.2524 10.5625 10.5238 9.83125 10.5238 8.9375C10.5238 8.04375 11.2524 7.3125 12.1429 7.3125H24.2857V4.875H12.1429C11.0694 4.875 10.0398 5.30301 9.28076 6.06488C8.52168 6.82675 8.09524 7.86006 8.09524 8.9375C8.09524 10.0149 8.52168 11.0483 9.28076 11.8101C10.0398 12.572 11.0694 13 12.1429 13H20.3029C21.2312 11.9538 22.3746 11.1221 23.6543 10.5625H12.1429ZM29.1429 17.875V13H25.9048V17.875H21.0476V21.125H25.9048V26H29.1429V21.125H34V17.875H29.1429Z" fill="black"/>
</svg>
